<svg width="32" height="22" viewBox="0 0 32 22" fill="none" xmlns="http://www.w3.org/2000/svg">
<path d="M32 20.4361C32 21.2998 31.2871 22 30.4077 22H17.5923C16.7129 22 16 21.2998 16 20.4361C16 19.5724 16.7129 18.8723 17.5923 18.8723H30.4077C31.2871 18.8723 32 19.5724 32 20.4361Z" fill="white"/>
<path d="M32 11.0004C32 11.8641 31.2871 12.5643 30.4077 12.5643H1.59231C0.712903 12.5643 0 11.8641 0 11.0004C0 10.1367 0.7129 9.43651 1.59231 9.43651H30.4077C31.2871 9.43651 32 10.1367 32 11.0004Z" fill="white"/>
<path d="M30.4077 3.12775C31.2871 3.12775 32 2.42758 32 1.56387C32 0.700169 31.2871 0 30.4077 0H11.1923C10.3129 0 9.6 0.700169 9.6 1.56387C9.6 2.42758 10.3129 3.12775 11.1923 3.12775H30.4077Z" fill="white"/>
</svg>
